<svg id="Objects" xmlns="http://www.w3.org/2000/svg" viewBox="0 0 208.26 50"><defs><style>.cls-1{fill:#cc5e28;}.cls-2{fill:#fff;}</style></defs><path class="cls-1" d="M42.39,10.41l-12.07-7a24.55,24.55,0,0,1,4.48,7.32L40.35,14a2,2,0,0,1,.75,1.3V34.88a2,2,0,0,1-.75,1.3l-7,4c6.14-10.65,1.47-19.43,1.47-19.43a8.59,8.59,0,0,1-4.87,6.62C39.28,12.1,21.18,0,21.18,0c7,12-6.31,24.48-6.31,24.48a5.58,5.58,0,0,0-2.36-6.78C5.22,26.22,5.45,33,7.74,37.85l-2.9-1.67a2,2,0,0,1-.75-1.3V15.25A2,2,0,0,1,4.84,14L20,5.22a14.53,14.53,0,0,0-1.24-4L2.8,10.41A5.92,5.92,0,0,0,0,15.25V34.88a6,6,0,0,0,2.8,4.85S20.52,49.89,20.92,50c-7.86-6.67-6.75-19.27,3-26.28-9.69,11.72,2.18,25.09,7.13,22.53l11.3-6.52a6,6,0,0,0,2.8-4.85V15.25A5.92,5.92,0,0,0,42.39,10.41ZM28,25.72C30.65,20.21,29.81,14,27.1,8.63,31.42,13.54,32.27,20.53,28,25.72Z"/><path class="cls-2" d="M76.91,24.66a7.05,7.05,0,0,0,1.24-2.84,19,19,0,0,0,.33-3.73,9.36,9.36,0,0,0-1.4-5.53,7.29,7.29,0,0,0-3.93-2.71,21,21,0,0,0-6-.75H57.82v34h7.52V27.87h2.14l3.74,15.25H79L74.33,26.65A6.74,6.74,0,0,0,76.91,24.66Zm-5.75-3.32A3.08,3.08,0,0,1,69.92,23a4.57,4.57,0,0,1-2.48.57h-2.1V14.14h2.43a3.23,3.23,0,0,1,2.94,1.22,6.09,6.09,0,0,1,.8,3.4A8.43,8.43,0,0,1,71.16,21.34Z"/><polygon class="cls-2" points="90.37 27.87 96.29 27.87 96.29 22.66 90.37 22.66 90.37 14.22 98.14 14.22 98.14 9.1 82.85 9.1 82.85 43.12 98.22 43.12 98.22 38.04 90.37 38.04 90.37 27.87"/><path class="cls-2" d="M114.27,24.85l-2.82-2.48a17.34,17.34,0,0,1-2.37-2.5,5,5,0,0,1-.9-3.09,3.68,3.68,0,0,1,.48-1.76,1.61,1.61,0,0,1,1.53-.88,1.67,1.67,0,0,1,1.43.61,3.59,3.59,0,0,1,.61,1.72,25.83,25.83,0,0,1,.19,2.62l6.47-.79a20.13,20.13,0,0,0-.36-3.17A9.78,9.78,0,0,0,117.35,12a6.4,6.4,0,0,0-2.52-2.42,8.91,8.91,0,0,0-4.38-.92,10.13,10.13,0,0,0-7,2.28,8.46,8.46,0,0,0-2.56,6.62,9.45,9.45,0,0,0,1.32,5.15,16.62,16.62,0,0,0,3.26,3.71L108.43,29a15.81,15.81,0,0,1,2.73,2.92,6.09,6.09,0,0,1,1,3.55,4,4,0,0,1-.36,1.68,1.5,1.5,0,0,1-1.53.8,2.29,2.29,0,0,1-1.58-.59,3.92,3.92,0,0,1-1-1.93,15.41,15.41,0,0,1-.39-3.53l-6.43,1A16,16,0,0,0,102.09,39a7.28,7.28,0,0,0,3.23,3.51,11.41,11.41,0,0,0,5.34,1.13,9.45,9.45,0,0,0,4.72-1.13,8,8,0,0,0,3.09-3.09,8.73,8.73,0,0,0,1.09-4.35A10.79,10.79,0,0,0,118,29.13,19.57,19.57,0,0,0,114.27,24.85Z"/><path class="cls-2" d="M138.86,9.88A11.72,11.72,0,0,0,133,8.64,11.59,11.59,0,0,0,126.85,10,7.48,7.48,0,0,0,123.68,14a17.69,17.69,0,0,0-.93,6.07V32.28a17.45,17.45,0,0,0,.93,6,7.51,7.51,0,0,0,3.17,3.94A11.39,11.39,0,0,0,133,43.62a11.22,11.22,0,0,0,5.94-1.32,7.12,7.12,0,0,0,3-3.61,14.56,14.56,0,0,0,.86-5.19V30.56h-7.35v3.57a15.91,15.91,0,0,1-.12,2,3.14,3.14,0,0,1-.63,1.58,2.07,2.07,0,0,1-1.68.61,2.24,2.24,0,0,1-1.66-.57,2.89,2.89,0,0,1-.76-1.51,11.08,11.08,0,0,1-.19-2.08v-16a12.79,12.79,0,0,1,.15-2,3,3,0,0,1,.71-1.57,2.24,2.24,0,0,1,1.75-.63,2.12,2.12,0,0,1,1.72.61,2.81,2.81,0,0,1,.61,1.53,17.18,17.18,0,0,1,.1,1.93v3.4h7.35V18.46a13.77,13.77,0,0,0-.88-5.12A6.84,6.84,0,0,0,138.86,9.88Z"/><path class="cls-2" d="M159.29,33.71a14.83,14.83,0,0,1-.15,2.1,3.35,3.35,0,0,1-.69,1.72,2.13,2.13,0,0,1-1.76.67,2.16,2.16,0,0,1-1.75-.67,3.47,3.47,0,0,1-.73-1.72,13.52,13.52,0,0,1-.17-2.1V9.1h-7.43V32.58a17.88,17.88,0,0,0,.88,6,6.86,6.86,0,0,0,3.09,3.74,15.18,15.18,0,0,0,12.2,0,7,7,0,0,0,3.08-3.74,17.34,17.34,0,0,0,.91-6V9.1h-7.48Z"/><polygon class="cls-2" points="179.07 27.87 185 27.87 185 22.66 179.07 22.66 179.07 14.22 186.84 14.22 186.84 9.1 171.56 9.1 171.56 43.12 186.93 43.12 186.93 38.04 179.07 38.04 179.07 27.87"/><path class="cls-2" d="M206.73,29.13A19.31,19.31,0,0,0,203,24.85l-2.81-2.48a17.46,17.46,0,0,1-2.38-2.5,5,5,0,0,1-.9-3.09,3.68,3.68,0,0,1,.48-1.76,1.63,1.63,0,0,1,1.54-.88,1.65,1.65,0,0,1,1.42.61,3.59,3.59,0,0,1,.61,1.72,25.83,25.83,0,0,1,.19,2.62l6.47-.79a20.13,20.13,0,0,0-.36-3.17A10,10,0,0,0,206.06,12a6.53,6.53,0,0,0-2.52-2.42,9,9,0,0,0-4.39-.92,10.09,10.09,0,0,0-7,2.28,8.43,8.43,0,0,0-2.57,6.62,9.46,9.46,0,0,0,1.33,5.15,16.33,16.33,0,0,0,3.25,3.71L197.13,29a15.81,15.81,0,0,1,2.73,2.92,6.09,6.09,0,0,1,1,3.55,4,4,0,0,1-.36,1.68,1.49,1.49,0,0,1-1.53.8,2.25,2.25,0,0,1-1.57-.59,3.77,3.77,0,0,1-1-1.93,15.34,15.34,0,0,1-.4-3.53l-6.43,1A16.17,16.17,0,0,0,190.79,39,7.33,7.33,0,0,0,194,42.49a11.41,11.41,0,0,0,5.34,1.13,9.45,9.45,0,0,0,4.72-1.13,8,8,0,0,0,3.09-3.09,8.73,8.73,0,0,0,1.09-4.35A10.79,10.79,0,0,0,206.73,29.13Z"/></svg>